<svg
    width="1000"
    height="1000"
    viewBox="0 0 1000 1000"
    xmlns="http://www.w3.org/2000/svg"
  >
    <defs>
      
      
      
      
      
      
      
      <clipPath id="shape">
        <path fill="currentColor" d="M862.5,674Q777,848,593.5,870.5Q410,893,244,798Q78,703,101,511Q124,319,259,178.5Q394,38,590,89.5Q786,141,867,320.5Q948,500,862.5,674Z"></path>
      </clipPath>
    </defs>
  
    

    <g  clip-path="url(#shape)">
      <path fill="#d0adb7" d="M862.5,674Q777,848,593.5,870.5Q410,893,244,798Q78,703,101,511Q124,319,259,178.5Q394,38,590,89.5Q786,141,867,320.5Q948,500,862.5,674Z" />
    </g>

    
  
  </svg>